<svg width="184" height="184" viewBox="0 0 184 184" fill="none" xmlns="http://www.w3.org/2000/svg">
<g clip-path="url(#clip0_2376_2)">
<path d="M131.148 131.1H85.1484V68.8442L124.923 90.6337L131.148 131.1Z" fill="#2F2E41"/>
<path d="M93.6463 120.112C110.14 120.112 123.511 106.741 123.511 90.2474C123.511 73.7534 110.14 60.3823 93.6463 60.3823C77.1523 60.3823 63.7812 73.7534 63.7812 90.2474C63.7812 106.741 77.1523 120.112 93.6463 120.112Z" fill="#FFB6B6"/>
<path d="M76.5018 124.529L75.1525 110.89L102.096 105.852L118.006 144.589L90.3364 176.408L70.6221 137.672L76.5018 124.529Z" fill="#FFB6B6"/>
<path d="M158.074 156.016C157.738 156.365 157.396 156.711 157.053 157.054C155.967 158.14 154.861 159.195 153.73 160.218C136.782 175.589 115.038 184 91.9996 184C70.7601 184 50.6204 176.851 34.3267 163.691C34.3163 163.684 34.3094 163.677 34.299 163.667C33.8044 163.269 33.3168 162.864 32.8291 162.453C32.9156 162.204 33.009 161.958 33.1023 161.716C38.3422 148.065 48.6905 141.386 54.9714 138.464C58.0841 137.014 60.1974 136.485 60.1974 136.485L67.5712 123.204L72.7626 132.888L76.5879 140.027L92.2832 169.311L105.824 135.596L110.019 125.144L111.095 122.467L116.21 126.448L121.052 130.215L130.802 132.366L138.712 134.113L149.455 136.485C153.799 140.023 156.441 146.754 157.918 155.117C157.973 155.414 158.025 155.715 158.074 156.016Z" fill="#F9A826"/>
<path d="M77.9368 56.308C81.5747 50.1973 88.256 46.0046 95.3407 45.3867C102.425 44.7687 109.732 47.7414 114.373 53.13C117.138 56.3411 118.951 60.2737 121.647 63.5436C127.448 70.5804 137.34 74.6948 139.874 83.4553C140.98 87.2781 140.429 91.3594 139.869 95.2995C139.389 98.6765 138.91 102.054 138.43 105.431C138.057 108.059 137.699 110.829 138.685 113.294C139.841 116.186 142.608 118.08 144.396 120.629C147.44 124.967 147.218 131.317 143.878 135.431C142.429 137.216 140.509 138.561 138.99 140.286C137.472 142.011 136.345 144.369 136.981 146.577C138.2 150.808 144.834 151.822 145.562 156.164C145.934 158.384 144.4 160.601 142.392 161.616C140.383 162.631 138.018 162.66 135.784 162.389C127.291 161.357 119.429 156.05 115.294 148.561C111.159 141.072 110.858 131.591 114.509 123.855C117.508 117.501 123.082 111.886 123.021 104.86C122.988 101.032 121.232 97.4574 119.516 94.0362C116.002 87.0339 112.488 80.0316 108.974 73.0293C107.092 69.2785 104.908 65.2364 101.033 63.6251C98.0382 62.3797 94.6402 62.8627 91.4371 63.3721C88.234 63.8815 84.8409 64.3773 81.8373 63.1536C78.8336 61.9299 76.5641 58.2942 77.9951 55.3837" fill="#2F2E41"/>
<path d="M83.1702 56.6271C77.4002 54.7278 70.9276 57.7768 67.0213 62.4288C63.115 67.0807 61.2202 73.0489 59.4151 78.849C58.3811 82.1713 57.3471 85.4936 56.3131 88.816C55.3405 91.9413 54.3678 95.0666 53.3952 98.1919C52.2511 101.868 51.0977 105.773 52.0366 109.507C52.7154 112.207 54.462 114.658 54.4996 117.441C54.5389 120.348 52.7183 122.9 51.1227 125.331C49.5272 127.761 48.0295 130.649 48.7897 133.455C49.9459 137.724 55.8806 140.07 55.5553 144.481C55.4467 145.953 54.5955 147.314 54.611 148.79C54.6307 150.668 56.1008 152.29 57.8232 153.038C59.5456 153.786 61.483 153.827 63.3606 153.794C69.1197 153.693 74.8684 153.009 80.4905 151.756C82.6536 151.274 84.8532 150.683 86.6537 149.391C88.4542 148.099 89.7974 145.958 89.5631 143.755C89.1979 140.321 85.5058 138.373 83.6426 135.465C81.8125 132.609 81.8549 128.991 81.0658 125.692C79.9812 121.158 77.3027 117.2 75.2919 112.994C67.7323 97.1826 70.3786 77.0286 81.7638 63.7046C82.7704 62.5265 83.8702 61.3414 84.2902 59.8498C84.7102 58.3582 84.1688 56.4578 82.7097 55.936" fill="#2F2E41"/>
<path d="M157.054 26.9463C139.677 9.57007 116.574 0 92 0C67.4263 0 44.3226 9.57007 26.9463 26.9463C9.57007 44.3225 0 67.4263 0 92C0 114.429 7.97218 135.634 22.5815 152.378C23.9753 153.979 25.4314 155.539 26.9463 157.054C27.3026 157.41 27.6623 157.766 28.0254 158.112C28.9938 159.049 29.9795 159.966 30.9826 160.855C31.5913 161.398 32.2069 161.93 32.8295 162.453C33.3172 162.864 33.8048 163.269 34.2994 163.667C34.3098 163.677 34.3167 163.684 34.3271 163.691C50.6208 176.851 70.7605 184 92 184C115.038 184 136.783 175.589 153.73 160.218C154.861 159.195 155.968 158.14 157.054 157.054C157.396 156.711 157.739 156.365 158.074 156.016C159.008 155.055 159.914 154.076 160.799 153.083C175.8 136.233 184 114.748 184 92C184 67.4263 174.43 44.3225 157.054 26.9463ZM160.575 152.222C159.71 153.204 158.825 154.173 157.918 155.117C156.507 156.587 155.051 158.012 153.547 159.385C152.976 159.911 152.398 160.422 151.814 160.931C145.91 166.067 139.338 170.452 132.252 173.946C129.765 175.174 127.216 176.291 124.608 177.29C114.478 181.178 103.483 183.308 92 183.308C80.9185 183.308 70.2935 181.323 60.4606 177.691C56.4244 176.204 52.523 174.437 48.7773 172.414C48.2274 172.116 47.6809 171.815 47.1379 171.507C44.2811 169.889 41.5176 168.121 38.8648 166.212C36.883 164.791 34.96 163.293 33.1027 161.716C32.4525 161.166 31.8092 160.609 31.1762 160.038C30.1456 159.122 29.1356 158.178 28.1499 157.209C26.2823 155.38 24.4976 153.474 22.7925 151.492C9.02362 135.499 0.691729 114.706 0.691729 92C0.691729 41.6525 41.6525 0.691729 92 0.691729C142.348 0.691729 183.308 41.6525 183.308 92C183.308 115.055 174.72 136.139 160.575 152.222Z" fill="#3F3D56"/>
</g>
<defs>
<clipPath id="clip0_2376_2">
<rect width="184" height="184" fill="white"/>
</clipPath>
</defs>
</svg>
