<svg width="180" height="180" viewBox="0 0 180 180" fill="none" xmlns="http://www.w3.org/2000/svg">
<g clip-path="url(#clip0_2376_10)">
<path d="M91.6103 117.5C107.746 117.5 120.826 104.42 120.826 88.2842C120.826 72.1487 107.746 59.0684 91.6103 59.0684C75.4749 59.0684 62.3945 72.1487 62.3945 88.2842C62.3945 104.42 75.4749 117.5 91.6103 117.5Z" fill="#A0616A"/>
<path d="M67.4287 124.042L73.5189 108.478L104.985 103.741L108.366 138.194L76.5614 138.871L67.4287 124.042Z" fill="#A0616A"/>
<path d="M121.109 93.6747C120.73 95.1938 119.963 98.8107 118.766 98.8285C117.789 98.8428 116.852 83.1514 117.829 80.5559C118.951 77.5742 116.003 73.8023 113.781 71.8661C109.787 68.3848 100.922 75.8602 91.9069 72.4738C91.6679 72.3842 91.7155 72.3942 88.8688 71.2585C80.1091 67.7635 79.6486 67.6626 79.1468 67.6128C74.9004 67.1926 69.7181 70.6675 67.6019 74.9042C65.4021 79.3083 67.2401 83.0858 65.1714 93.7406C64.9304 94.9825 64.5518 96.7526 63.9562 96.7787C62.8673 96.8262 61.8041 91.0104 61.5257 89.4872C60.3591 83.1054 59.2343 76.9526 61.5257 70.0433C61.7756 69.2897 63.3161 66.4925 66.3867 60.9289C70.8103 52.9141 73.0352 48.8915 73.6782 48.1688C78.2893 42.9832 86.6827 38.2528 93.7297 40.2697C97.2915 41.2891 96.6529 42.928 101.021 44.523C108.806 47.3653 115.572 43.8893 116.819 46.3459C117.48 47.6472 115.631 48.72 115.604 51.2069C115.558 55.4739 120.955 56.707 124.111 60.9289C125.808 63.1986 128.712 63.2229 121.109 93.6747Z" fill="#2F2E41"/>
<path d="M157.304 149.755C156.126 151.078 154.905 152.374 153.639 153.64C136.641 170.638 114.039 180 89.9998 180C69.222 180 49.5202 173.006 33.5807 160.132C33.5705 160.126 33.5637 160.119 33.5537 160.108C31.439 158.403 29.392 156.59 27.416 154.675C27.4532 154.377 27.4938 154.083 27.5378 153.792C27.8152 151.829 28.1232 149.958 28.4682 148.236C31.2934 134.12 68.4675 119.301 69.4352 118.915C69.4487 118.912 69.4555 118.908 69.4555 118.908C69.4555 118.908 74.2397 136.543 94.7401 136.316C108.704 136.164 105.997 118.908 105.997 118.908C105.997 118.908 106.166 118.942 106.484 119.01C110.517 119.866 138.519 126.017 149.566 134.411C152.932 136.969 155.348 142.417 157.084 148.913C157.158 149.19 157.229 149.474 157.304 149.755Z" fill="#F9A826"/>
<path d="M153.639 26.3606C136.641 9.36233 114.039 0 90 0C65.9605 0 43.3591 9.36233 26.3605 26.3606C9.36209 43.3592 0 65.9606 0 90C0 111.942 7.79889 132.686 22.0906 149.065C23.4542 150.632 24.8786 152.158 26.3605 153.64C26.709 153.988 27.0609 154.337 27.4162 154.675C29.3921 156.59 31.4392 158.404 33.5538 160.109C33.5639 160.119 33.5707 160.126 33.5808 160.132C49.5203 173.006 69.2222 180 90 180C114.039 180 136.641 170.638 153.639 153.64C154.905 152.374 156.126 151.078 157.304 149.755C171.978 133.271 180 112.253 180 90C180 65.9606 170.638 43.3592 153.639 26.3606ZM157.084 148.913C154.421 151.941 151.559 154.79 148.514 157.433C142.738 162.457 136.309 166.747 129.377 170.165C126.944 171.366 124.45 172.458 121.899 173.436C111.989 177.239 101.233 179.323 90 179.323C79.1594 179.323 68.7654 177.381 59.1463 173.829C55.1977 172.374 51.3812 170.645 47.7169 168.665C47.1789 168.375 46.6444 168.08 46.1132 167.779C43.3184 166.196 40.615 164.467 38.02 162.599C34.3015 159.933 30.7962 156.986 27.5379 153.792C25.7109 152.002 23.9651 150.138 22.297 148.199C8.82747 132.554 0.676692 112.213 0.676692 90C0.676692 40.7472 40.747 0.676692 90 0.676692C139.253 0.676692 179.323 40.7472 179.323 90C179.323 112.554 170.922 133.18 157.084 148.913Z" fill="#3F3D56"/>
</g>
<defs>
<clipPath id="clip0_2376_10">
<rect width="180" height="180" fill="white"/>
</clipPath>
</defs>
</svg>
