<svg width="184" height="184" viewBox="0 0 184 184" fill="none" xmlns="http://www.w3.org/2000/svg">
<g clip-path="url(#clip0_2376_27)">
<path d="M102.741 133.926L107.12 106.558L77.5616 94.5156L73.1826 136.116L102.741 133.926Z" fill="#A0616A"/>
<path d="M132.447 174.373C129.91 175.61 127.324 176.727 124.699 177.718C119.449 179.704 114.031 181.203 108.472 182.204C103.039 183.185 97.4603 183.683 91.8821 183.683C84.3461 183.683 76.8537 182.779 69.6078 180.99C66.7704 180.294 63.9087 179.444 61.0955 178.453C60.8006 178.346 60.501 178.24 60.206 178.133C56.716 176.867 53.284 175.383 49.9826 173.706C49.5378 173.484 49.0931 173.256 48.6484 173.014C48.1554 172.763 47.6671 172.498 47.1741 172.222C46.5457 171.879 45.9221 171.521 45.2985 171.158C43.2104 169.95 41.156 168.645 39.1934 167.287L39.0629 167.2C38.9469 167.118 38.8309 167.04 38.7197 166.958C38.7922 166.576 38.8599 166.228 38.9227 165.919C39.1644 164.705 39.324 164.038 39.324 164.038L52.5589 136.698L56.2472 129.08L58.0453 128.34L71.6284 122.757H104.827L115.302 127.088C115.302 127.088 115.355 127.287 115.462 127.669C116.506 131.415 122.596 152.684 132.046 173.493C132.177 173.783 132.312 174.078 132.447 174.373Z" fill="#F9A826"/>
<path d="M95.271 115.356C111.918 115.356 125.413 101.861 125.413 85.2138C125.413 68.5668 111.918 55.0718 95.271 55.0718C78.624 55.0718 65.1289 68.5668 65.1289 85.2138C65.1289 101.861 78.624 115.356 95.271 115.356Z" fill="#A0616A"/>
<path d="M58.0979 128.081L58.046 128.34L48.8564 172.033L48.7769 172.413L48.6489 173.015C48.1543 172.763 47.6666 172.496 47.1755 172.223C46.546 171.877 45.9235 171.521 45.2974 171.158C43.2119 169.951 41.1575 168.644 39.1929 167.288L39.0615 167.198C38.9474 167.118 38.8298 167.039 38.7191 166.959C37.2181 165.911 35.7551 164.818 34.3266 163.691C34.3162 163.684 34.3093 163.677 34.299 163.667C31.7499 161.612 29.2943 159.402 26.9459 157.054C25.431 155.539 23.9749 153.979 22.5811 152.378L22.7921 151.492L22.8128 151.402L23.0756 150.275C25.4137 140.4 33.3236 132.822 43.288 130.913L56.5277 128.378L58.0979 128.081Z" fill="#F9A826"/>
<path d="M151.971 161.597C148.07 164.918 143.889 167.925 139.475 170.564C139.045 170.825 138.605 171.081 138.165 171.337C136.29 172.42 134.381 173.43 132.447 174.373C129.909 175.61 127.323 176.727 124.698 177.718L124.495 176.761L114.117 127.412L115.461 127.668L128.928 130.25C138.891 132.159 146.804 139.738 149.138 149.614L151.715 160.524L151.971 161.597Z" fill="#F9A826"/>
<path d="M129.982 93.271C129.199 96.1907 125.26 109.237 115.171 111.983C113.19 112.524 108.462 113.148 109.714 111.983C109.999 111.717 110.275 111.456 110.55 111.2C121.499 100.904 125.965 94.6102 123.925 80.6403C122.63 71.7459 107.877 63.6686 99.5775 62.8661C96.0778 62.5281 91.6113 63.712 88.6628 66.7624C83.7951 71.7893 84.5975 87.2193 81.9003 96.2827C81.1752 98.7091 80.2036 100.681 78.8065 101.875C77.9364 102.62 77.3806 101.672 76.9697 100.12C76.0948 96.8237 75.8677 90.7866 74.6253 92.4926C71.0338 97.4378 74.4561 103.992 75.4906 106.521C75.7033 107.038 75.9208 107.535 76.1383 108.009V108.014C76.2639 108.285 76.3945 108.556 76.5202 108.812V108.817C79.9715 115.854 84.1189 118.373 87.7733 122.757C89.2089 124.473 90.5673 126.47 91.7806 129.138C92.612 130.965 93.2114 132.802 93.6223 134.605C95.7152 143.644 93.2307 151.857 92.5587 154.09C91.1521 158.741 88.7352 166.73 81.644 171.24C72.7401 176.906 64.6145 171.913 60.7281 177.293C60.6797 177.355 60.6362 177.418 60.5927 177.481C60.4477 177.699 60.3172 177.916 60.206 178.133C56.716 176.867 53.2839 175.383 49.9825 173.706C49.5377 173.484 49.093 173.256 48.6484 173.014C48.1553 172.763 47.6671 172.498 47.174 172.222C47.1547 171.845 47.1353 171.468 47.1208 171.086C46.8357 164.546 47.2659 157.358 48.8949 150.189C49.939 145.612 50.9735 141.072 52.5589 136.698C53.5934 133.846 54.8598 131.062 56.5274 128.379C57.8617 126.223 59.4471 124.13 61.3709 122.119C65.5958 117.706 69.3517 115.864 69.9462 111.204C70.7969 104.553 63.8701 102.552 61.3709 92.4925C59.6647 85.6143 57.8809 75.7002 59.6114 69.0197C61.2453 62.707 62.6665 57.2302 67.4085 51.8644C68.5492 50.5785 77.9124 41.6359 88.7594 40.1664C93.7575 39.4947 98.2144 45.8948 104.257 47.2722C111.203 48.8531 115.181 49.7571 119.067 52.7296C125.637 57.7471 127.488 65.2494 129.204 72.2198C130.548 77.6725 132.288 84.725 129.982 93.271Z" fill="#2F2E41"/>
<path d="M157.054 26.9463C139.677 9.57007 116.574 0 92 0C67.4263 0 44.3226 9.57007 26.9463 26.9463C9.57007 44.3225 0 67.4263 0 92C0 114.429 7.97218 135.634 22.5815 152.378C23.9753 153.979 25.4314 155.539 26.9463 157.054C29.2947 159.402 31.7504 161.612 34.2994 163.667C34.3098 163.677 34.3167 163.684 34.3271 163.691C50.6208 176.851 70.7605 184 92 184C116.574 184 139.677 174.43 157.054 157.054C174.43 139.677 184 116.574 184 92C184 67.4263 174.43 44.3225 157.054 26.9463ZM151.814 160.931C145.91 166.067 139.338 170.452 132.252 173.946C129.765 175.174 127.216 176.291 124.608 177.29C114.478 181.178 103.483 183.308 92 183.308C80.9185 183.308 70.2935 181.323 60.4606 177.691C56.4244 176.204 52.523 174.437 48.7773 172.414C48.2274 172.116 47.6809 171.815 47.1379 171.507C44.2811 169.889 41.5176 168.121 38.8648 166.212C32.9367 161.958 27.5377 157.012 22.7925 151.492C9.02362 135.499 0.691729 114.706 0.691729 92C0.691729 41.6525 41.6525 0.691729 92 0.691729C142.348 0.691729 183.308 41.6525 183.308 92C183.308 119.489 171.099 144.181 151.814 160.931Z" fill="#3F3D56"/>
</g>
<defs>
<clipPath id="clip0_2376_27">
<rect width="184" height="184" fill="white"/>
</clipPath>
</defs>
</svg>
